<svg width="25" height="21" viewBox="0 0 25 21" fill="none" xmlns="http://www.w3.org/2000/svg">
<path d="M3.76359 15.4429C2.9211 16.1572 2.9211 17.3154 3.76359 18.0298C4.60609 18.7441 5.97204 18.7441 6.81453 18.0298L3.76359 15.4429ZM24.0767 2.6357C24.0767 1.62547 23.1108 0.806518 21.9194 0.806519L2.50334 0.806519C1.31188 0.806519 0.346004 1.62547 0.346004 2.6357C0.346004 3.64593 1.31188 4.46488 2.50334 4.46488L19.762 4.46488L19.762 19.0983C19.762 20.1085 20.7279 20.9275 21.9194 20.9275C23.1108 20.9275 24.0767 20.1085 24.0767 19.0983L24.0767 2.6357ZM6.81453 18.0298L23.4448 3.92912L20.3939 1.34227L3.76359 15.4429L6.81453 18.0298Z" fill="#F9F9F9"/>
</svg>
